<svg data-v-423bf9ae="" xmlns="http://www.w3.org/2000/svg" viewBox="0 0 179.16398026251903 60" class="font"><!----><!----><!----><g data-v-423bf9ae="" id="fd798a8d-efe0-4a86-b75f-be13dbedbb39" fill="#22C4D6" transform="matrix(6.430868219789529,0,0,6.430868219789529,-4.501610248654885,-18.39228349037443)"><path d="M2.66 3.00L2.66 10.40L4.80 10.40L4.80 12.05L0.70 12.05L0.70 3.00L2.66 3.00ZM11.06 4.70L11.06 4.70L11.06 10.35L11.06 10.35Q11.06 12.19 9.32 12.19L9.32 12.19L7.46 12.19L7.46 12.19Q5.73 12.19 5.73 10.35L5.73 10.35L5.73 4.70L5.73 4.70Q5.73 2.86 7.46 2.86L7.46 2.86L9.32 2.86L9.32 2.86Q11.06 2.86 11.06 4.70ZM9.10 10.57L9.10 10.57L9.10 4.47L9.10 4.47Q9.10 4.35 9.02 4.27L9.02 4.27L9.02 4.27Q8.95 4.19 8.83 4.19L8.83 4.19L7.95 4.19L7.95 4.19Q7.84 4.19 7.76 4.27L7.76 4.27L7.76 4.27Q7.69 4.35 7.69 4.47L7.69 4.47L7.69 10.57L7.69 10.57Q7.69 10.68 7.76 10.77L7.76 10.77L7.76 10.77Q7.84 10.85 7.95 10.85L7.95 10.85L8.83 10.85L8.83 10.85Q8.95 10.85 9.02 10.77L9.02 10.77L9.02 10.77Q9.10 10.68 9.10 10.57ZM17.53 4.70L17.53 5.38L15.67 5.38L15.67 4.66L15.67 4.66Q15.67 4.55 15.59 4.47L15.59 4.47L15.59 4.47Q15.51 4.38 15.40 4.38L15.40 4.38L14.63 4.38L14.63 4.38Q14.52 4.38 14.44 4.47L14.44 4.47L14.44 4.47Q14.36 4.55 14.36 4.66L14.36 4.66L14.36 6.27L14.36 6.27Q14.36 6.38 14.44 6.47L14.44 6.47L14.44 6.47Q14.52 6.55 14.63 6.55L14.63 6.55L15.89 6.55L15.89 6.55Q17.63 6.58 17.63 8.40L17.63 8.40L17.63 10.35L17.63 10.35Q17.63 12.19 15.89 12.19L15.89 12.19L14.24 12.19L14.24 12.19Q12.50 12.19 12.50 10.35L12.50 10.35L12.50 9.41L14.36 9.41L14.36 10.42L14.36 10.42Q14.36 10.53 14.44 10.61L14.44 10.61L14.44 10.61Q14.52 10.70 14.63 10.70L14.63 10.70L15.50 10.70L15.50 10.70Q15.61 10.70 15.69 10.61L15.69 10.61L15.69 10.61Q15.76 10.53 15.76 10.42L15.76 10.42L15.76 8.64L15.76 8.64Q15.76 8.53 15.69 8.44L15.69 8.44L15.69 8.44Q15.61 8.36 15.50 8.36L15.50 8.36L14.24 8.36L14.24 8.36Q12.50 8.36 12.50 6.51L12.50 6.51L12.50 4.70L12.50 4.70Q12.50 2.86 14.24 2.86L14.24 2.86L15.79 2.86L15.79 2.86Q17.53 2.86 17.53 4.70L17.53 4.70ZM20.87 8.26L20.87 10.43L23.04 10.43L23.04 12.05L18.91 12.05L18.91 3.00L23.04 3.00L23.04 4.59L20.87 4.59L20.87 6.72L22.90 6.72L22.90 8.26L20.87 8.26ZM25.13 4.66L23.66 4.66L23.66 3.00L28.56 3.00L28.56 4.66L27.09 4.66L27.09 12.05L25.13 12.05L25.13 4.66Z"></path></g><!----><!----></svg>
