<svg data-v-423bf9ae="" xmlns="http://www.w3.org/2000/svg" viewBox="0 0 202.77323046741193 60" class="font"><!----><!----><!----><g data-v-423bf9ae="" id="1e94d75a-efab-46d0-ab33-bbc0c6ebbd34" fill="#19CEDA" transform="matrix(6.122380344408806,0,0,6.122380344408806,-10.285601013619129,-23.081374258483216)"><path d="M1.68 13.55L6.62 13.55L6.62 12.98L2.27 12.98L2.27 3.77L1.68 3.77ZM7.69 9.90C7.69 12.05 9.21 13.57 11.28 13.57C13.37 13.57 14.88 12.05 14.88 9.90C14.88 7.77 13.37 6.24 11.28 6.24C9.21 6.24 7.69 7.77 7.69 9.90ZM8.26 9.91C8.26 8.08 9.53 6.80 11.28 6.80C13.05 6.80 14.31 8.08 14.31 9.91C14.31 11.75 13.05 13.02 11.28 13.02C9.53 13.02 8.26 11.75 8.26 9.91ZM15.95 12.56C16.62 13.20 17.60 13.57 18.62 13.57C19.94 13.57 21.15 12.96 21.15 11.61C21.15 9.03 16.90 10.00 16.90 8.04C16.90 7.17 17.70 6.78 18.72 6.78C19.42 6.78 20.06 6.97 20.57 7.29L20.82 6.82C20.24 6.47 19.54 6.24 18.73 6.24C17.44 6.24 16.34 6.80 16.34 8.08C16.34 10.58 20.65 9.65 20.59 11.70C20.55 12.63 19.67 13.03 18.65 13.03C17.72 13.03 16.84 12.70 16.21 12.11ZM22.34 9.91C22.34 12.05 23.84 13.57 25.90 13.57C27.06 13.57 28.06 13.13 28.73 12.40L28.39 12.03C27.80 12.67 26.92 13.03 25.93 13.03C24.23 13.03 23.00 11.84 22.92 10.07L29.29 10.07C29.33 7.81 28.04 6.24 25.90 6.24C23.84 6.24 22.34 7.77 22.34 9.91ZM22.93 9.55C23.07 7.90 24.26 6.78 25.90 6.78C27.57 6.78 28.64 7.90 28.76 9.55ZM30.56 6.94L31.63 6.94L31.63 11.54C31.63 12.91 32.24 13.58 33.28 13.57C33.82 13.57 34.34 13.37 34.80 13.05L34.58 12.57C34.20 12.84 33.77 12.99 33.35 12.99C32.59 13.01 32.19 12.50 32.19 11.47L32.19 6.94L34.66 6.94L34.66 6.44L32.19 6.44L32.19 4.63L31.63 4.63L31.63 6.44L30.56 6.44Z"></path></g><!----><!----></svg>