<svg data-v-423bf9ae="" xmlns="http://www.w3.org/2000/svg" viewBox="0 0 200.6666692097982 60" class="font"><!----><!----><!----><g data-v-423bf9ae="" id="7f4289fc-b034-4914-ab9b-850b7d3eebb9" fill="white" transform="matrix(6.666666666666667,0,0,6.666666666666667,-6.066664437452957,-26.800000349680587)"><path d="M5.81 13.02L5.81 13.02L1.20 13.02L1.20 13.02Q0.91 13.02 0.91 12.73L0.91 12.73L0.91 4.31L0.91 4.31Q0.91 4.02 1.20 4.02L1.20 4.02L2.39 4.02L2.39 4.02Q2.69 4.02 2.69 4.31L2.69 4.31L2.69 11.31L2.69 11.31Q2.69 11.47 2.86 11.47L2.86 11.47L5.81 11.47L5.81 11.47Q6.09 11.47 6.09 11.77L6.09 11.77L6.09 12.73L6.09 12.73Q6.09 13.02 5.81 13.02ZM10.47 13.02L10.47 13.02L9.23 13.02L9.23 13.02Q8.12 13.02 7.52 12.43L7.52 12.43L7.52 12.43Q6.92 11.84 6.92 10.74L6.92 10.74L6.92 8.16L6.92 8.16Q6.92 7.06 7.52 6.47L7.52 6.47L7.52 6.47Q8.12 5.88 9.23 5.88L9.23 5.88L10.47 5.88L10.47 5.88Q11.56 5.88 12.17 6.47L12.17 6.47L12.17 6.47Q12.78 7.07 12.78 8.16L12.78 8.16L12.78 10.74L12.78 10.74Q12.78 11.83 12.17 12.42L12.17 12.42L12.17 12.42Q11.56 13.02 10.47 13.02ZM9.49 11.49L9.49 11.49L10.21 11.49L10.21 11.49Q10.65 11.49 10.84 11.31L10.84 11.31L10.84 11.31Q11.03 11.13 11.03 10.68L11.03 10.68L11.03 8.22L11.03 8.22Q11.03 7.77 10.84 7.59L10.84 7.59L10.84 7.59Q10.65 7.41 10.21 7.41L10.21 7.41L9.49 7.41L9.49 7.41Q9.04 7.41 8.86 7.59L8.86 7.59L8.86 7.59Q8.68 7.77 8.68 8.22L8.68 8.22L8.68 10.68L8.68 10.68Q8.68 11.13 8.86 11.31L8.86 11.31L8.86 11.31Q9.04 11.49 9.49 11.49ZM16.88 13.02L16.88 13.02L14.22 13.02L14.22 13.02Q13.94 13.02 13.94 12.73L13.94 12.73L13.94 11.83L13.94 11.83Q13.94 11.68 14 11.61L14 11.61L14 11.61Q14.06 11.55 14.22 11.55L14.22 11.55L16.56 11.55L16.56 11.55Q17.25 11.55 17.25 11.13L17.25 11.13L17.25 11.06L17.25 11.06Q17.25 10.72 16.67 10.42L16.67 10.42L15.29 9.65L15.29 9.65Q14.57 9.28 14.24 8.86L14.24 8.86L14.24 8.86Q13.90 8.44 13.90 7.78L13.90 7.78L13.90 7.78Q13.90 6.80 14.42 6.34L14.42 6.34L14.42 6.34Q14.94 5.88 16.04 5.88L16.04 5.88L18.38 5.88L18.38 5.88Q18.66 5.88 18.66 6.17L18.66 6.17L18.66 7.08L18.66 7.08Q18.66 7.24 18.61 7.30L18.61 7.30L18.61 7.30Q18.55 7.36 18.38 7.36L18.38 7.36L16.44 7.36L16.44 7.36Q15.75 7.36 15.75 7.71L15.75 7.71L15.75 7.78L15.75 7.78Q15.75 8.09 16.35 8.41L16.35 8.41L17.77 9.25L17.77 9.25Q18.49 9.65 18.79 10.06L18.79 10.06L18.79 10.06Q19.08 10.47 19.08 11.14L19.08 11.14L19.08 11.14Q19.08 13.02 16.88 13.02ZM25.58 13.02L25.58 13.02L22.48 13.02L22.48 13.02Q21.38 13.02 20.78 12.43L20.78 12.43L20.78 12.43Q20.17 11.84 20.17 10.74L20.17 10.74L20.17 8.16L20.17 8.16Q20.17 7.06 20.78 6.47L20.78 6.47L20.78 6.47Q21.38 5.88 22.48 5.88L22.48 5.88L23.59 5.88L23.59 5.88Q24.70 5.88 25.30 6.47L25.30 6.47L25.30 6.47Q25.90 7.06 25.90 8.16L25.90 8.16L25.90 9.94L25.90 9.94Q25.90 10.23 25.61 10.23L25.61 10.23L22.09 10.23L22.09 10.23Q21.92 10.23 21.92 10.39L21.92 10.39L21.92 10.70L21.92 10.70Q21.92 11.13 22.11 11.32L22.11 11.32L22.11 11.32Q22.30 11.51 22.75 11.51L22.75 11.51L25.58 11.51L25.58 11.51Q25.87 11.51 25.87 11.82L25.87 11.82L25.87 12.74L25.87 12.74Q25.87 12.89 25.81 12.96L25.81 12.96L25.81 12.96Q25.75 13.02 25.58 13.02ZM22.09 9.04L22.09 9.04L24.00 9.04L24.00 9.04Q24.15 9.04 24.15 8.89L24.15 8.89L24.15 8.22L24.15 8.22Q24.15 7.77 23.97 7.59L23.97 7.59L23.97 7.59Q23.79 7.41 23.34 7.41L23.34 7.41L22.75 7.41L22.75 7.41Q22.30 7.41 22.12 7.59L22.12 7.59L22.12 7.59Q21.94 7.77 21.94 8.22L21.94 8.22L21.94 8.89L21.94 8.89Q21.94 9.04 22.09 9.04ZM27.38 7.42L27.38 7.42L26.82 7.42L26.82 7.42Q26.66 7.42 26.59 7.36L26.59 7.36L26.59 7.36Q26.53 7.31 26.53 7.14L26.53 7.14L26.53 6.17L26.53 6.17Q26.53 5.88 26.82 5.88L26.82 5.88L27.38 5.88L27.38 5.88Q27.54 5.88 27.54 5.73L27.54 5.73L27.54 4.40L27.54 4.40Q27.54 4.10 27.85 4.10L27.85 4.10L29.02 4.10L29.02 4.10Q29.32 4.10 29.32 4.40L29.32 4.40L29.32 5.73L29.32 5.73Q29.32 5.88 29.48 5.88L29.48 5.88L30.58 5.88L30.58 5.88Q30.87 5.88 30.87 6.17L30.87 6.17L30.87 7.14L30.87 7.14Q30.87 7.29 30.81 7.36L30.81 7.36L30.81 7.36Q30.74 7.42 30.58 7.42L30.58 7.42L29.48 7.42L29.48 7.42Q29.32 7.42 29.32 7.57L29.32 7.57L29.32 10.67L29.32 10.67Q29.32 11.10 29.51 11.29L29.51 11.29L29.51 11.29Q29.71 11.48 30.16 11.48L30.16 11.48L30.72 11.48L30.72 11.48Q31.01 11.48 31.01 11.77L31.01 11.77L31.01 12.74L31.01 12.74Q31.01 12.89 30.95 12.96L30.95 12.96L30.95 12.96Q30.88 13.02 30.72 13.02L30.72 13.02L29.86 13.02L29.86 13.02Q28.76 13.02 28.15 12.43L28.15 12.43L28.15 12.43Q27.54 11.84 27.54 10.75L27.54 10.75L27.54 7.57L27.54 7.57Q27.54 7.42 27.38 7.42Z"></path></g><!----><!----></svg>