<svg data-v-423bf9ae="" xmlns="http://www.w3.org/2000/svg" viewBox="0 0 208.64660980891645 60" class="font"><!----><!----><!----><g data-v-423bf9ae="" id="cac7423f-a2fc-45a0-b122-241abb4ffed0" fill="white" transform="matrix(5.639097562403148,0,0,5.639097562403148,-3.496237309800378,-19.285713616810604)"><path d="M6.89 14.06L6.89 11.38L3.04 11.38L3.04 3.42L0.62 3.42L0.62 14.06ZM12.71 11.21C12.71 11.49 12.57 11.63 12.29 11.63L10.51 11.63C10.23 11.63 10.09 11.48 10.09 11.19L10.09 8.69C10.09 8.41 10.23 8.27 10.51 8.27L12.29 8.27C12.57 8.27 12.71 8.41 12.71 8.69ZM13.23 14.06C14.48 14.06 15.11 13.41 15.11 12.14L15.11 7.78C15.11 6.48 14.48 5.84 13.20 5.84L9.59 5.84C8.32 5.84 7.67 6.48 7.67 7.77L7.67 12.19C7.67 13.44 8.33 14.06 9.63 14.06ZM21.90 14.06C23.06 14.06 23.63 13.41 23.63 12.12L23.63 10.85C23.63 9.67 23.06 9.09 21.90 9.09L18.82 9.09C18.66 9.09 18.58 9.02 18.58 8.86L18.58 8.37C18.58 8.20 18.66 8.12 18.82 8.12L23.41 8.12L23.41 5.84L18.12 5.84C16.84 5.84 16.21 6.48 16.21 7.76L16.21 9.00C16.21 10.23 16.60 10.79 17.88 10.79L20.94 10.79C21.10 10.79 21.18 10.86 21.18 11.02L21.18 11.51C21.18 11.68 21.10 11.76 20.94 11.76L16.31 11.76L16.31 14.06ZM29.76 8.95C29.76 9.13 29.67 9.23 29.48 9.23L27.44 9.23C27.26 9.23 27.16 9.13 27.16 8.95L27.16 8.37C27.16 8.19 27.26 8.09 27.44 8.09L29.48 8.09C29.67 8.09 29.76 8.19 29.76 8.37ZM31.82 14.06L31.82 11.76L27.58 11.76C27.30 11.76 27.16 11.62 27.16 11.34L27.16 10.72C27.29 10.79 27.44 10.82 27.59 10.82L30.38 10.82C31.57 10.82 32.17 10.19 32.17 8.92L32.17 7.71C32.17 6.47 31.57 5.84 30.38 5.84L26.63 5.84C25.37 5.84 24.74 6.48 24.74 7.77L24.74 12.12C24.74 13.41 25.40 14.06 26.70 14.06ZM37.60 14.06L37.60 11.63L36.08 11.63C35.84 11.63 35.71 11.48 35.71 11.16L35.71 8.13L37.62 8.13L37.62 5.92L35.71 5.92L35.71 3.56L33.29 3.56L33.29 12.25C33.29 13.45 33.96 14.06 35.29 14.06Z"></path></g><!----><!----></svg>