<?xml version="1.0" encoding="utf-8"?>
<!-- Generator: Adobe Illustrator 16.0.0, SVG Export Plug-In . SVG Version: 6.00 Build 0)  -->
<!DOCTYPE svg PUBLIC "-//W3C//DTD SVG 1.1//EN" "http://www.w3.org/Graphics/SVG/1.1/DTD/svg11.dtd">
<svg version="1.1" id="레이어_1" xmlns="http://www.w3.org/2000/svg" xmlns:xlink="http://www.w3.org/1999/xlink" x="0px"
	 y="0px" width="311.811px" height="425.197px" viewBox="0 0 311.811 425.197" enable-background="new 0 0 311.811 425.197"
	 xml:space="preserve">
<rect x="28.041" y="24.93" fill="#2BB9C9" width="42.52" height="255.118"/>
<rect x="28.041" y="237.528" fill="#2BB9C9" width="85.073" height="42.52"/>
<rect x="240.64" y="24.929" fill="#2BB9C9" width="42.52" height="255.119"/>
<rect x="197.87" y="24.929" fill="#2BB9C9" width="85.29" height="42.52"/>
<path fill="#2BB9C9" d="M198.12,67.449c-23.502,0-42.52,19.018-42.52,42.52c0,0-0.404,18.854,21.68,37.729
	c22.188,22.188,20.608,47.311,20.608,47.311c0,47.004-38.036,85.04-85.04,85.04v-42.52c23.502,0,42.52-19.018,42.52-42.52
	c0,0,1.4-18.202-23.329-37.222c-19.458-19.458-18.959-47.817-18.959-47.817c0-47.004,38.036-85.04,85.04-85.04V67.449z"/>
<g>
	
		<g id="fd798a8d-efe0-4a86-b75f-be13dbedbb39" transform="matrix(6.430868219789529,0,0,6.430868219789529,-4.501610248654885,-18.39228349037443)">
		<path fill="#2BB9C9" d="M7.897,52.533v10.531h3.045v2.348H5.108V52.533H7.897z M19.851,54.952L19.851,54.952v8.04l0,0
			c0,1.746-0.825,2.619-2.476,2.619l0,0h-2.647l0,0c-1.641,0-2.462-0.873-2.462-2.619l0,0v-8.04l0,0
			c0-1.746,0.821-2.618,2.462-2.618l0,0h2.647l0,0C19.025,52.333,19.851,53.206,19.851,54.952z M17.062,63.305L17.062,63.305v-8.681
			l0,0c0-0.114-0.038-0.209-0.114-0.285l0,0l0,0c-0.066-0.076-0.156-0.114-0.27-0.114l0,0h-1.252l0,0
			c-0.104,0-0.195,0.038-0.27,0.114l0,0l0,0c-0.067,0.076-0.1,0.171-0.1,0.285l0,0v8.681l0,0c0,0.104,0.033,0.199,0.1,0.284l0,0l0,0
			c0.076,0.076,0.166,0.114,0.27,0.114l0,0h1.252l0,0c0.114,0,0.204-0.038,0.27-0.114l0,0l0,0
			C17.024,63.504,17.062,63.409,17.062,63.305z M29.058,54.952v0.968h-2.647v-1.024l0,0c0-0.104-0.038-0.195-0.114-0.27l0,0l0,0
			c-0.076-0.085-0.166-0.128-0.27-0.128l0,0h-1.096l0,0c-0.104,0-0.195,0.043-0.27,0.128l0,0l0,0
			c-0.076,0.076-0.114,0.166-0.114,0.27l0,0v2.291l0,0c0,0.104,0.038,0.199,0.114,0.285l0,0l0,0c0.076,0.076,0.166,0.114,0.27,0.114
			l0,0h1.793l0,0c1.651,0.028,2.476,0.906,2.476,2.633l0,0v2.775l0,0c0,1.746-0.825,2.619-2.476,2.619l0,0h-2.348l0,0
			c-1.651,0-2.476-0.873-2.476-2.619l0,0v-1.338h2.647v1.437l0,0c0,0.104,0.038,0.194,0.114,0.27l0,0l0,0
			c0.076,0.085,0.166,0.128,0.27,0.128l0,0h1.238l0,0c0.104,0,0.194-0.043,0.27-0.128l0,0l0,0c0.067-0.076,0.1-0.166,0.1-0.27l0,0
			v-2.533l0,0c0-0.104-0.033-0.199-0.1-0.285l0,0l0,0c-0.076-0.076-0.166-0.114-0.27-0.114l0,0h-1.793l0,0
			c-1.651,0-2.476-0.878-2.476-2.633l0,0v-2.576l0,0c0-1.746,0.825-2.618,2.476-2.618l0,0h2.206l0,0
			C28.233,52.333,29.058,53.206,29.058,54.952L29.058,54.952z M33.811,60.018v3.088h3.088v2.305h-5.877V52.533h5.877v2.263h-3.088
			v3.031H36.7v2.192H33.811z M39.873,54.895h-2.092v-2.362h6.973v2.362h-2.092v10.516h-2.789V54.895z"/>
	</g>
</g>
</svg>
