<?xml version="1.0" encoding="UTF-8"?>
<svg xmlns="http://www.w3.org/2000/svg" xmlns:xlink="http://www.w3.org/1999/xlink" width="120pt" height="163pt" viewBox="0 0 120 163" version="1.1">
<g id="surface1">
<path style=" stroke:none;fill-rule:nonzero;fill:rgb(16.862745%,72.54902%,78.823529%);fill-opacity:1;" d="M 10.785156 9.5625 L 27.140625 9.5625 L 27.140625 107.40625 L 10.785156 107.40625 Z M 10.785156 9.5625 "/>
<path style=" stroke:none;fill-rule:nonzero;fill:rgb(16.862745%,72.54902%,78.823529%);fill-opacity:1;" d="M 10.785156 91.097656 L 43.503906 91.097656 L 43.503906 107.40625 L 10.785156 107.40625 Z M 10.785156 91.097656 "/>
<path style=" stroke:none;fill-rule:nonzero;fill:rgb(16.862745%,72.54902%,78.823529%);fill-opacity:1;" d="M 92.554688 9.5625 L 108.90625 9.5625 L 108.90625 107.40625 L 92.554688 107.40625 Z M 92.554688 9.5625 "/>
<path style=" stroke:none;fill-rule:nonzero;fill:rgb(16.862745%,72.54902%,78.823529%);fill-opacity:1;" d="M 76.105469 9.5625 L 108.90625 9.5625 L 108.90625 25.867188 L 76.105469 25.867188 Z M 76.105469 9.5625 "/>
<path style=" stroke:none;fill-rule:nonzero;fill:rgb(16.862745%,72.54902%,78.823529%);fill-opacity:1;" d="M 76.199219 25.867188 C 67.160156 25.867188 59.847656 33.164062 59.847656 42.175781 C 59.847656 42.175781 59.691406 49.40625 68.183594 56.648438 C 76.71875 65.15625 76.109375 74.792969 76.109375 74.792969 C 76.109375 92.820312 61.480469 107.40625 43.402344 107.40625 L 43.402344 91.097656 C 52.441406 91.097656 59.757812 83.804688 59.757812 74.792969 C 59.757812 74.792969 60.296875 67.8125 50.785156 60.515625 C 43.300781 53.054688 43.492188 42.175781 43.492188 42.175781 C 43.492188 24.148438 58.121094 9.5625 76.199219 9.5625 Z M 76.199219 25.867188 "/>
<path style=" stroke:none;fill-rule:nonzero;fill:rgb(16.862745%,72.54902%,78.823529%);fill-opacity:1;" d="M 17.800781 122.515625 L 17.800781 148.488281 L 25.332031 148.488281 L 25.332031 154.28125 L 10.902344 154.28125 L 10.902344 122.515625 Z M 47.367188 128.480469 L 47.367188 148.3125 C 47.367188 152.617188 45.328125 154.769531 41.242188 154.769531 L 34.695312 154.769531 C 30.636719 154.769531 28.609375 152.617188 28.609375 148.3125 L 28.609375 128.480469 C 28.609375 124.175781 30.636719 122.023438 34.695312 122.023438 L 41.242188 122.023438 C 45.324219 122.023438 47.367188 124.175781 47.367188 128.480469 Z M 40.46875 149.082031 L 40.46875 127.671875 C 40.46875 127.390625 40.375 127.15625 40.1875 126.96875 C 40.023438 126.78125 39.800781 126.6875 39.519531 126.6875 L 36.421875 126.6875 C 36.167969 126.6875 35.941406 126.78125 35.753906 126.96875 C 35.589844 127.15625 35.507812 127.390625 35.507812 127.671875 L 35.507812 149.082031 C 35.507812 149.339844 35.589844 149.574219 35.753906 149.785156 C 35.945312 149.972656 36.167969 150.066406 36.421875 150.066406 L 39.519531 150.066406 C 39.800781 150.066406 40.023438 149.972656 40.1875 149.785156 C 40.375 149.574219 40.46875 149.339844 40.46875 149.082031 Z M 70.140625 128.480469 L 70.140625 130.867188 L 63.59375 130.867188 L 63.59375 128.34375 C 63.59375 128.085938 63.5 127.863281 63.3125 127.675781 C 63.125 127.46875 62.902344 127.363281 62.644531 127.363281 L 59.933594 127.363281 C 59.675781 127.363281 59.449219 127.46875 59.265625 127.675781 C 59.078125 127.863281 58.984375 128.085938 58.984375 128.34375 L 58.984375 133.992188 C 58.984375 134.25 59.078125 134.484375 59.265625 134.695312 C 59.453125 134.882812 59.675781 134.976562 59.933594 134.976562 L 64.367188 134.976562 C 68.453125 135.046875 70.492188 137.210938 70.492188 141.472656 L 70.492188 148.316406 C 70.492188 152.621094 68.453125 154.777344 64.367188 154.777344 L 58.558594 154.777344 C 54.476562 154.777344 52.4375 152.621094 52.4375 148.316406 L 52.4375 145.015625 L 58.984375 145.015625 L 58.984375 148.558594 C 58.984375 148.816406 59.078125 149.039062 59.265625 149.226562 C 59.453125 149.4375 59.675781 149.542969 59.933594 149.542969 L 62.996094 149.542969 C 63.253906 149.542969 63.476562 149.4375 63.664062 149.226562 C 63.828125 149.039062 63.910156 148.816406 63.910156 148.558594 L 63.910156 142.3125 C 63.910156 142.054688 63.828125 141.820312 63.664062 141.609375 C 63.476562 141.421875 63.253906 141.328125 62.996094 141.328125 L 58.558594 141.328125 C 54.476562 141.328125 52.4375 139.164062 52.4375 134.835938 L 52.4375 128.480469 C 52.4375 124.175781 54.476562 122.023438 58.558594 122.023438 L 64.015625 122.023438 C 68.101562 122.023438 70.140625 124.175781 70.140625 128.480469 Z M 81.898438 140.976562 L 81.898438 148.59375 L 89.535156 148.59375 L 89.535156 154.277344 L 75 154.277344 L 75 122.515625 L 89.535156 122.515625 L 89.535156 128.097656 L 81.898438 128.097656 L 81.898438 135.570312 L 89.042969 135.570312 L 89.042969 140.976562 Z M 96.890625 128.339844 L 91.714844 128.339844 L 91.714844 122.515625 L 108.964844 122.515625 L 108.964844 128.339844 L 103.789062 128.339844 L 103.789062 154.277344 L 96.890625 154.277344 Z M 96.890625 128.339844 "/>
</g>
</svg>
